#N canvas 0 95 1792 667 10;
#N canvas 341 74 434 300 parameters 0;
#X msg 150 120 bits 8;
#X msg 123 99 parity 0;
#X msg 89 199 close;
#X obj 124 244 outlet;
#X obj 62 140 bng 15 250 50 0 close cgui close 17 7 0 10 -262144 -1
-1;
#X obj 13 141 bng 15 250 50 0 empty ogui open 17 7 0 10 -262144 -1
-1;
#X obj 123 31 loadbang;
#X obj 123 62 t b b;
#X msg 142 200 devicename /dev/tty.HC-06-DevB;
#X text 168 176 set to the actual name on your machine;
#X connect 0 0 3 0;
#X connect 1 0 3 0;
#X connect 2 0 3 0;
#X connect 4 0 2 0;
#X connect 5 0 8 0;
#X connect 6 0 7 0;
#X connect 7 0 1 0;
#X connect 7 1 0 0;
#X connect 8 0 3 0;
#X coords 0 -1 1 1 100 60 1 10 100;
#X restore 63 17 pd parameters;
#X text 153 88 device \, bauds;
#X obj 63 146 route 85;
#X obj 63 118 route float symbol;
#X obj 118 299 int;
#X obj 150 298 + 1;
#N canvas 0 22 450 278 (subpatch) 0;
#X array \$0_values 9 float 3;
#A 0 81 175 6 189 251 181 107 12 80;
#X coords 0 255 9 0 200 70 1 0 0;
#X restore 205 148 graph;
#X msg 102 271 0;
#X obj 153 208 t f b;
#X obj 13 326 tabwrite \$0_values;
#X obj 108 172 route 83;
#X obj 108 196 bng 15 250 50 0 empty empty empty 17 7 0 10 -262144
-1 -1;
#X obj 158 380 tabread \$0_values;
#X obj 267 380 tabread \$0_values;
#X floatatom 158 448 5 0 0 0 - - -;
#X obj 378 381 tabread \$0_values;
#X obj 488 381 tabread \$0_values;
#X floatatom 378 449 5 0 0 0 - - -;
#X obj 598 381 tabread \$0_values;
#X obj 708 381 tabread \$0_values;
#X floatatom 598 449 5 0 0 0 - - -;
#X obj 222 457 vsl 15 128 0 360 0 0 empty empty empty 0 -9 0 10 -262144
-1 -1 0 1;
#X obj 434 459 vsl 15 128 0 360 0 0 empty empty empty 0 -9 0 10 -262144
-1 -1 0 1;
#X obj 664 446 vsl 15 128 0 360 0 0 empty empty empty 0 -9 0 10 -262144
-1 -1 0 1;
#X obj 346 254 t b b b b b b b b b;
#X msg 158 354 1;
#X msg 267 354 2;
#X msg 378 355 3;
#X msg 488 355 4;
#X msg 598 355 5;
#X msg 708 355 6;
#X obj 222 606 outlet roll;
#X obj 434 607 outlet pitch;
#X obj 664 606 outlet yaw;
#X text 480 253 last two bytes are for temperature;
#X obj 63 88 comport 1 9600;
#X obj 158 415 expr int((($f2<<8|$f1)/32768)*180);
#X obj 378 416 expr int((($f2<<8|$f1)/32768)*180);
#X obj 598 416 expr int((($f2<<8|$f1)/32768)*180);
#X connect 0 0 35 0;
#X connect 2 1 10 0;
#X connect 3 0 2 0;
#X connect 4 0 5 0;
#X connect 4 0 9 1;
#X connect 5 0 4 1;
#X connect 7 0 4 0;
#X connect 8 0 9 0;
#X connect 8 1 4 0;
#X connect 10 0 11 0;
#X connect 10 1 8 0;
#X connect 11 0 24 0;
#X connect 12 0 36 0;
#X connect 13 0 36 1;
#X connect 14 0 21 0;
#X connect 15 0 37 0;
#X connect 16 0 37 1;
#X connect 17 0 22 0;
#X connect 18 0 38 0;
#X connect 19 0 38 1;
#X connect 20 0 23 0;
#X connect 21 0 31 0;
#X connect 22 0 32 0;
#X connect 23 0 33 0;
#X connect 24 0 7 0;
#X connect 24 1 25 0;
#X connect 24 2 26 0;
#X connect 24 3 27 0;
#X connect 24 4 28 0;
#X connect 24 5 29 0;
#X connect 24 6 30 0;
#X connect 25 0 12 0;
#X connect 26 0 13 0;
#X connect 27 0 15 0;
#X connect 28 0 16 0;
#X connect 29 0 18 0;
#X connect 30 0 19 0;
#X connect 35 0 3 0;
#X connect 36 0 14 0;
#X connect 37 0 17 0;
#X connect 38 0 20 0;
#X coords 0 -1 1 1 120 80 1 50 0;
