#N canvas 662 169 469 300 12;
#X obj 163 138 quadraTrans~;
#X obj 166 97 hrir~;
#X floatatom 178 54 5 0 0 0 - - -;
#X floatatom 227 55 5 0 0 0 - - -;
#X floatatom 275 57 5 0 0 0 - - -;
#X floatatom 244 99 5 0 0 0 - - -;
#X obj 115 54 noise~;
#X obj 163 184 dac~;
#X connect 0 0 7 0;
#X connect 0 0 7 1;
#X connect 0 1 7 1;
#X connect 0 1 7 0;
#X connect 0 2 7 0;
#X connect 0 2 7 1;
#X connect 0 3 7 0;
#X connect 0 3 7 1;
#X connect 1 0 0 0;
#X connect 1 1 0 1;
#X connect 2 0 1 1;
#X connect 3 0 1 2;
#X connect 4 0 1 3;
#X connect 5 0 0 2;
#X connect 6 0 1 0;
