#N canvas 662 73 469 396 12;
#X obj 136 267 quadraTrans~;
#X obj 136 212 hrir~;
#X floatatom 146 177 5 0 0 1 deg - -;
#X floatatom 213 177 5 0 0 1 deg - -;
#X floatatom 281 177 5 0 0 1 cm - -;
#X floatatom 217 236 5 0 0 1 Listener_Azimuth - -;
#X obj 78 177 noise~;
#X obj 164 322 dac~;
#X obj 146 62 vsl 15 100 0 360 0 0 empty empty Azimuth 0 -9 0 10 -262130
-1 -1 0 1;
#X obj 281 62 vsl 15 100 20 160 0 0 empty empty Distance 0 -9 0 10
-204800 -1 -1 0 1;
#X obj 213 62 vsl 15 100 -40 90 0 0 empty empty Elevation 0 -9 0 10
-204786 -1 -1 0 1;
#X connect 0 0 7 0;
#X connect 0 0 7 1;
#X connect 0 1 7 1;
#X connect 0 1 7 0;
#X connect 0 2 7 0;
#X connect 0 2 7 1;
#X connect 0 3 7 0;
#X connect 0 3 7 1;
#X connect 1 0 0 0;
#X connect 1 1 0 1;
#X connect 2 0 1 1;
#X connect 3 0 1 2;
#X connect 4 0 1 3;
#X connect 5 0 0 2;
#X connect 6 0 1 0;
#X connect 8 0 2 0;
#X connect 9 0 4 0;
#X connect 10 0 3 0;
