#N canvas 343 223 664 440 12;
#X obj 299 342 quadraTrans~;
#X obj 299 287 hrir~;
#X floatatom 309 252 5 0 0 1 deg - -;
#X floatatom 376 252 5 0 0 1 deg - -;
#X floatatom 444 252 5 0 0 1 cm - -;
#X floatatom 501 221 5 0 0 1 - - -;
#X obj 250 252 noise~;
#X obj 327 397 dac~;
#X obj 308 34 vsl 15 100 0 360 0 0 empty empty Azimuth 0 -9 0 10 -262130
-1 -1 4900 1;
#X obj 444 35 vsl 15 100 20 160 0 0 empty empty Distance 0 -9 0 10
-204800 -1 -1 1500 1;
#X obj 376 34 vsl 15 100 -40 90 0 0 empty empty Elevation 0 -9 0 10
-204786 -1 -1 0 1;
#X obj 501 250 t f f;
#X obj 286 141 bng 15 250 50 0 empty empty empty 17 7 0 10 -262144
-1 -1;
#X obj 308 165 -;
#X obj 14 209 expr if($f1<0 \, $f1+360 \, if($f1>=360 \, $f1+360 \,
$f1));
#X obj 501 105 vsl 15 100 0 360 0 0 empty empty Listener_Azimuth 0
-9 0 10 -261234 -1 -1 5000 1;
#X connect 0 0 7 0;
#X connect 0 0 7 1;
#X connect 0 1 7 1;
#X connect 0 1 7 0;
#X connect 0 2 7 0;
#X connect 0 2 7 1;
#X connect 0 3 7 0;
#X connect 0 3 7 1;
#X connect 1 0 0 0;
#X connect 1 1 0 1;
#X connect 2 0 1 1;
#X connect 3 0 1 2;
#X connect 4 0 1 3;
#X connect 5 0 11 0;
#X connect 6 0 1 0;
#X connect 8 0 12 0;
#X connect 8 0 13 0;
#X connect 9 0 4 0;
#X connect 10 0 3 0;
#X connect 11 0 0 2;
#X connect 11 1 13 1;
#X connect 12 0 13 0;
#X connect 13 0 14 0;
#X connect 14 0 2 0;
#X connect 15 0 5 0;
